<svg width="133" height="28" viewBox="0 0 133 28" fill="none" xmlns="http://www.w3.org/2000/svg">
<path d="M19.1083 13.002H1.81832V24H6.91432V17.994H19.1083V13.002ZM22.0203 11.91V6.944H1.81832V11.91H22.0203ZM23.9088 24H29.0048V13.002H23.9088V24ZM29.0048 6.944H23.9088V11.91H29.0048V6.944ZM30.8906 11.91H51.4046V6.944H30.8906V11.91ZM43.6826 24V13.002H38.6126V24H43.6826ZM58.3811 18.306V13.002H53.2851V19.814C53.2851 20.464 53.3891 21.036 53.6491 21.556C53.8831 22.076 54.1951 22.492 54.6111 22.856C55.0011 23.22 55.4691 23.506 55.9891 23.714C56.5091 23.922 57.0811 24 57.6531 24H69.6391C70.2111 24 70.7571 23.922 71.2771 23.714C71.7971 23.506 72.2651 23.22 72.6811 22.856C73.0711 22.492 73.3831 22.076 73.6431 21.556C73.8771 21.036 74.0071 20.464 74.0071 19.814V13.002H68.9111V18.358C68.8591 18.514 68.7551 18.67 68.5991 18.8C68.4171 18.93 68.2351 19.008 68.0531 19.034H59.2391C59.0311 19.008 58.8231 18.93 58.6411 18.774C58.4591 18.618 58.3811 18.462 58.3811 18.306ZM58.3811 6.944H53.2851V11.91H58.3811V6.944ZM68.9111 11.91H74.0071V6.944H68.9111V11.91ZM84.3886 24H89.4846V19.216H100.743C101.315 19.216 101.861 19.138 102.381 18.93C102.901 18.722 103.369 18.436 103.785 18.072C104.175 17.708 104.487 17.292 104.747 16.772C104.981 16.252 105.111 15.68 105.111 15.03V13.002H100.015V13.496C100.015 13.652 99.9106 13.808 99.7286 13.964C99.5466 14.12 99.3646 14.198 99.1566 14.224H89.4846V13.002H84.3886V24ZM105.111 11.91V11.13C105.111 10.506 104.981 9.934 104.747 9.414C104.487 8.894 104.175 8.452 103.785 8.088C103.369 7.724 102.901 7.464 102.381 7.256C101.861 7.048 101.315 6.944 100.743 6.944H84.3886V11.91H105.111Z" fill="white"/>
<rect x="106.882" y="4.75" width="17.4118" height="5.44118" rx="2.72059" fill="white"/>
<rect x="111.235" y="11.2794" width="17.4118" height="5.44118" rx="2.72059" fill="white"/>
<rect x="115.588" y="17.8088" width="17.4118" height="5.44118" rx="2.72059" fill="white"/>
</svg>
